<svg xmlns="http://www.w3.org/2000/svg" enable-background="new 0 0 900 900" viewBox="0 0 900 900" class="injected-svg icon" data-src="https://design-system.yext.com/assets/icons/solutionworkplace.svg" xmlns:xlink="http://www.w3.org/1999/xlink"><path d="m247.6 250h404.9v404.9h-404.9z" fill="#e3eaec"></path><path d="m515.5 233-135.1 2.8-24 200.5 13.6 16.2h159.1l16.4-13.9z" fill="#98bec8"></path><path d="m429.4 453.2h39.2v111.2h-39.2z" fill="#2186a2"></path><path d="m352.1 478.2 98.8 7.1 102.4-5.3 5.8 14-5.8 33.3-26.4 8.7-163.6 3.3-16.6-16.9-6.1-37.1z" fill="#98bec8"></path><path d="m269.8 425.4h53.9v27.1h-53.9z" fill="#2186a2"></path><path d="m576 425.4h54.5v27.1h-54.5z" fill="#2186a2"></path><g fill="#fff"><path d="m342.6 657.8c-6.8 0-12.4-5.5-12.4-12.4 0-6.8 5.5-12.4 12.4-12.4 6.8 0 12.4 5.5 12.4 12.4 0 6.8-5.5 12.4-12.4 12.4z"></path><path d="m449.8 663.5c-6.8 0-12.4-5.5-12.4-12.4 0-6.8 5.5-12.4 12.4-12.4 6.8 0 12.4 5.5 12.4 12.4 0 6.9-5.5 12.4-12.4 12.4z"></path><path d="m556.9 657.6c-6.8 0-12.4-5.5-12.4-12.4 0-6.8 5.5-12.4 12.4-12.4 6.8 0 12.4 5.5 12.4 12.4 0 6.8-5.6 12.4-12.4 12.4z"></path></g><path d="m619.4 417.7h-32.5c-10.7 0-19.5 8.7-19.5 19.5v2.8c0 10.7 8.7 19.5 19.5 19.5h10.3v27.1c0 7.7-6.2 13.9-13.9 13.9h-19.3l1-9.4c.5-4.8-1.1-9.5-4.6-13-3.4-3.4-8.2-5.1-13-4.6l-20.1 2.2c-17.2 1.9-34.4 3.2-51.7 3.8v-20.1h47.8c7.3 0 14.3-3.1 19.2-8.6s7.2-12.8 6.4-20.1l-21.1-188.6c-.9-8-7.7-14.1-15.8-14.1h-124.4c-8.1 0-14.9 6.1-15.8 14.1l-21.1 188.6c-.8 7.3 1.5 14.6 6.4 20.1s11.9 8.6 19.2 8.6h47.8v20.1c-17.3-.6-34.5-1.9-51.7-3.8l-20.1-2.2c-4.8-.5-9.5 1.1-13 4.6-3.4 3.4-5.1 8.2-4.6 13l1 9.4h-19.3c-7.7 0-13.9-6.2-13.9-13.9v-27.1h10.3c10.7 0 19.5-8.7 19.5-19.5v-2.8c0-10.7-8.7-19.5-19.5-19.5h-32.5c-10.7 0-19.5 8.7-19.5 19.5v2.8c0 10.7 8.7 19.5 19.5 19.5h10.3v27.1c0 14.2 11.6 25.8 25.8 25.8h20.6l.4 4c1.5 13.1 12.5 22.9 25.6 22.9h60.9v30.3h20v11.7l-94.2 19.4c-7.3 1.5-12.7 8.1-12.7 15.5v9c-8.6 2.6-14.8 10.5-14.8 19.9 0 11.5 9.3 20.8 20.8 20.8s20.8-9.3 20.8-20.8c0-9.4-6.3-17.4-15-20v-8.9c0-1.9 1.3-3.5 3.2-3.9l91.8-18.9v37.7c-8.6 2.6-14.9 10.5-14.9 20 0 11.5 9.3 20.8 20.8 20.8s20.8-9.3 20.8-20.8c0-9.4-6.3-17.4-14.9-20v-37.7l91.8 18.9c1.8.4 3.2 2 3.2 3.9v9c-8.6 2.6-14.9 10.5-14.9 20 0 11.5 9.3 20.8 20.8 20.8s20.8-9.3 20.8-20.8c0-9.4-6.3-17.4-14.9-20v-9c0-7.5-5.3-14-12.7-15.5l-93.8-19.4v-11.7h19.8v-30.3h60.9c13.2 0 24.2-9.9 25.6-22.9l.4-4h20.6c14.2 0 25.8-11.6 25.8-25.8v-27.1h10.3c10.7 0 19.5-8.7 19.5-19.5v-2.8c0-10.7-8.7-19.5-19.5-19.5zm-346.4 22.2v-2.8c0-4.2 3.4-7.5 7.5-7.5h32.5c4.2 0 7.5 3.4 7.5 7.5v2.8c0 4.2-3.4 7.5-7.5 7.5h-32.5c-4.1.1-7.5-3.3-7.5-7.5zm79.1 205.3c0 4.9-4 8.9-8.9 8.9s-8.9-4-8.9-8.9 4-8.9 8.9-8.9 8.9 3.9 8.9 8.9zm213.7 0c0 4.9-4 8.9-8.9 8.9s-8.9-4-8.9-8.9 4-8.9 8.9-8.9 8.9 3.9 8.9 8.9zm-106.9 5.9c0 4.9-4 8.9-8.9 8.9s-8.9-4-8.9-8.9 4-8.9 8.9-8.9 8.9 4 8.9 8.9zm5-93.5h-27.8v-17.8h27.8zm-97.8-114.7c-2.7-3-3.9-6.8-3.4-10.8l21.1-188.6c.2-2 1.9-3.5 3.9-3.5h124.7c2 0 3.7 1.5 3.9 3.5l21.1 188.6c.4 4-.8 7.8-3.4 10.8s-6.3 4.6-10.3 4.6h-147.3c-4 0-7.7-1.7-10.3-4.6zm70 16.5h27.8v20.4c-9.3.2-18.5.2-27.8 0zm117.2 30.3-2.8 25.3c-.8 7-6.7 12.3-13.8 12.3h-173.4c-7.1 0-13-5.3-13.8-12.3l-2.8-25.3c-.2-1.6.6-2.7 1.1-3.2s1.6-1.3 3.2-1.1l20.1 2.2c52.3 5.8 105.3 5.8 157.6 0l20.1-2.2c1.6-.2 2.7.6 3.2 1.1.6.4 1.5 1.5 1.3 3.2zm73.7-49.8c0 4.2-3.4 7.5-7.5 7.5h-32.5c-4.2 0-7.5-3.4-7.5-7.5v-2.8c0-4.2 3.4-7.5 7.5-7.5h32.5c4.2 0 7.5 3.4 7.5 7.5z"></path></svg>