<svg xmlns="http://www.w3.org/2000/svg" enable-background="new 0 0 900 900" viewBox="0 0 900 900" class="injected-svg icon" data-src="https://design-system.yext.com/assets/icons/solutionmarketing.svg" xmlns:xlink="http://www.w3.org/1999/xlink"><path d="m251.5 251.5h397v397h-397z" fill="#f4eaed" transform="matrix(.7071 .7071 -.7071 .7071 450 -186.3961)"></path><path d="m564.7 273.4v352.2l-45-63.1-55.6-27.1-33.5-4.6h-192.6l-23.1-7.4-15.1-18.7-5.4-12.3v-89.1l14.7-23.3 18-8.6h201.9l56.3-12.8 54-40.3z" fill="#e0b1bc"></path><path d="m368.8 371.4h37.1v157.7h-37.1z" fill="#d25573"></path><path d="m564.7 273.4v352.2l-24.3-40.9-47.9-39.7-46.5-12.1-40.2-3.7v-157.8l44.2-4.7 35.3-8.1 35.5-21.3 28.9-36.4z" fill="#fff"></path><path d="m320.3 532.4 59.3 122.1-52.2 26.1-76.8-149.8z" fill="#d25573"></path><path d="m511.8 334.5c-25.7 19.5-59.2 29.9-97.2 29.9h-176.6c-27.7 0-50.2 22.5-50.2 50.2v70.7c0 27.7 22.5 50.2 50.2 50.2h7.8 1.8l.8 1.6 75.3 150.7 63.7-31.9-58.1-116.3-2.1-4.1h4.6 82.9c37.9 0 71.5 10.3 97.2 29.9 24.9 19 40.6 45.3 45.4 76.1h13.6v-383h-13.6c-4.9 30.8-20.6 57-45.5 76zm-141.8 313.4 1.3 2.5-2.5 1.3-37.2 18.6-2.5 1.3-1.3-2.5-64.8-129.6-2.1-4.1h4.6 46.5 1.8l.8 1.6zm-5.5-268.7v141.3 2.8h-2.8-123.7c-21.1 0-38.2-17.1-38.2-38.2v-70.7c0-21.1 17.1-38.2 38.2-38.2h123.7 2.8zm35.3 0v141.3 2.8h-2.8-17.7-2.8v-2.8-141.3-2.8h2.8 17.7 2.8zm159.1-72.3v286 10.7l-5.3-9.3c-12.4-21.7-31.3-39.6-54.8-51.8-24.1-12.5-53.1-19.1-84.1-19.1h-2.8v-2.8-141.4-2.8h2.8c30.9 0 60-6.6 84.1-19.1 23.5-12.2 42.4-30.1 54.8-51.8l5.3-9.3z"></path><path d="m646.7 499.9h12v82.7h-12z" transform="matrix(.3827 -.9239 .9239 .3827 -97.0702 937.1021)"></path><path d="m629.5 443.9h82.7v12h-82.7z"></path><path d="m611.4 352.6h82.7v12h-82.7z" transform="matrix(.9239 -.3827 .3827 .9239 -87.5574 277.0811)"></path></svg>