<svg xmlns="http://www.w3.org/2000/svg" enable-background="new 0 0 900 900" viewBox="0 0 900 900" class="injected-svg icon" data-src="https://design-system.yext.com/assets/icons/solutionsupport.svg" xmlns:xlink="http://www.w3.org/1999/xlink"><path d="m204.1 297.2 398.7 398.7c57.1-51.6 93-126.4 93-209.4 0-155.9-126.4-282.3-282.3-282.3-83-.1-157.7 35.8-209.4 93z" fill="#f5ebe8"></path><path d="m308 566.7h-17.7c-14.3 0-26-11.7-26-26v-113.6c0-14.3 11.7-26 26-26h17.7c14.3 0 26 11.7 26 26v113.6c.1 14.3-11.7 26-26 26z" fill="#f1b6a6"></path><path d="m249.2 552c-8.3 0-15.2-6.8-15.2-15.2v-105.9c0-8.3 6.8-15.2 15.2-15.2 8.3 0 15.2 6.8 15.2 15.2v105.9c-.1 8.4-6.9 15.2-15.2 15.2z" fill="#e56238"></path><path d="m650.8 552c-8.3 0-15.2-6.8-15.2-15.2v-105.9c0-8.3 6.8-15.2 15.2-15.2 8.3 0 15.2 6.8 15.2 15.2v105.9c0 8.4-6.8 15.2-15.2 15.2z" fill="#e56238"></path><path d="m609.7 566.7h-17.7c-14.3 0-26-11.7-26-26v-113.6c0-14.3 11.7-26 26-26h17.7c14.3 0 26 11.7 26 26v113.6c0 14.3-11.7 26-26 26z" fill="#f1b6a6"></path><path d="m430.2 662.4h-38.4c-9.8 0-17.8-8-17.8-17.8v-1.6c0-9.8 8-17.8 17.8-17.8h38.4c9.8 0 17.8 8 17.8 17.8v1.7c0 9.7-8 17.7-17.8 17.7z" fill="#f1b6a6"></path><path d="m445.2 209.3c-60.5 0-112.8 34.3-135.1 51.2-14.7 9.8 3.6 33.2 19.6 25.1 15.3-12 52.3-46.3 113.3-46.3s94.6 22.3 126.4 43c12.5 8.6 30.5-12.5 20.2-22.3-10.3-9.9-63.2-50.7-144.4-50.7z" fill="#e56238"></path><path d="m656.2 410.2c-3.7-49.4-24.9-95.5-60.1-130.6 1.5-3.1 2.3-6.6 2.1-10.2-.3-5.9-3-11.3-7.5-15-40-32.9-88.6-50.2-140.6-50.2s-100.7 17.4-140.6 50.2c-4.6 3.8-7.2 9.1-7.5 15-.2 3.5.6 7.1 2.1 10.2-35.2 35.1-56.4 81.1-60.1 130.6-8.9 1.4-15.8 9.1-15.8 18.3v111.2c0 9.1 6.6 16.7 15.3 18.3 1.4 28 13.9 49.6 36.9 64.1 19.9 12.5 47.5 20.2 86.5 24 .6 5.9 3.2 11.4 7.5 15.6 4.9 4.9 11.4 7.6 18.3 7.6h37.4c14.3 0 25.9-11.7 25.9-26s-11.7-26-26-26h-37.4c-11.1 0-20.7 7.1-24.3 16.9-76.2-7.5-110.4-30.5-112.9-76.3 2.6-.5 4.9-1.5 7-3 5.7 11 17.2 18.5 30.5 18.5h11.4c19 0 34.4-15.4 34.4-34.4v-109.8c0-19-15.4-34.4-34.4-34.4h-11.4c-13.2 0-24.7 7.5-30.5 18.5-1.9-1.4-4.2-2.3-6.5-2.9 3.7-46.2 23.4-89.1 56.2-122 3.3 2 7 3.1 11 3.1 4.8 0 9.5-1.7 13.2-4.7 32.4-26.6 71.8-40.7 113.9-40.7s81.5 14.1 113.9 40.7c3.7 3.1 8.3 4.7 13.2 4.7 3.9 0 7.7-1.1 11-3.1 32.8 32.9 52.6 75.8 56.2 122-2.4.5-4.6 1.5-6.5 2.9-5.7-11-17.2-18.5-30.5-18.5h-11.4c-19 0-34.4 15.4-34.4 34.4v109.8c0 19 15.4 34.4 34.4 34.4h11.4c13.2 0 24.7-7.5 30.5-18.5 3 2.1 6.7 3.3 10.6 3.3h5.1c10.2 0 18.6-8.3 18.6-18.6v-111.1c-.3-9.3-7.2-17-16.1-18.3zm-263.7 219h37.5c7.8 0 14.1 6.3 14.1 14.1 0 7.7-6.3 14-14 14.1h-37.4c-3.8 0-7.3-1.5-9.9-4.1-2.7-2.7-4.1-6.2-4.1-10-.2-7.8 6.1-14.1 13.8-14.1zm-99.8-222.5h11.4c12.4 0 22.5 10.1 22.5 22.5v109.8c0 12.4-10.1 22.5-22.5 22.5h-11.4c-12.4 0-22.5-10.1-22.5-22.5v-109.8c.1-12.4 10.1-22.5 22.5-22.5zm-34.3 21.8v.6 109.9.6c0 3.7-3 6.7-6.7 6.7h-5.1c-3.7 0-6.7-3-6.7-6.7v-111.1c0-3.7 3-6.7 6.7-6.7h5.1c3.7 0 6.7 3 6.7 6.7zm318.7-148.9c-2.1 0-4-.7-5.6-2-34.5-28.4-76.5-43.4-121.5-43.4-44.9 0-86.9 15-121.5 43.4-1.6 1.3-3.6 2-5.6 2-2.5 0-4.8-1-6.5-2.7-1.8-1.8-2.8-4.3-2.7-6.9s1.2-4.8 3.2-6.4c37.8-31.1 83.9-47.6 133.1-47.6s95.3 16.4 133.1 47.5c2 1.6 3.1 3.8 3.2 6.4s-.8 5.1-2.7 6.9c-1.8 1.9-4.1 2.8-6.5 2.8zm30.2 281.9h-11.4c-12.4 0-22.5-10.1-22.5-22.5v-109.8c0-12.4 10.1-22.5 22.5-22.5h11.4c12.4 0 22.5 10.1 22.5 22.5v109.8c-.1 12.4-10.1 22.5-22.5 22.5zm52.7-21.8c0 3.7-3 6.7-6.7 6.7h-5.1c-3.7 0-6.7-3-6.7-6.7v-.7-109.8-.6c0-3.7 3-6.7 6.7-6.7h5.1c3.7 0 6.7 3 6.7 6.7z"></path></svg>