<svg xmlns="http://www.w3.org/2000/svg" enable-background="new 0 0 900 900" viewBox="0 0 900 900" class="injected-svg icon" data-src="https://design-system.yext.com/assets/icons/solutionecommerce.svg" xmlns:xlink="http://www.w3.org/1999/xlink"><circle cx="457" cy="450" fill="#e6ece8" r="230.5"></circle><path d="m269.6 328.3 34.3 176 306.1-1.6 31.7-174.4z" fill="#a6c6b0" stroke="#e6ece8" stroke-miterlimit="10"></path><circle cx="324.5" cy="618.2" fill="#479c60" r="25.9"></circle><circle cx="589.5" cy="618.2" fill="#479c60" r="25.9"></circle><path d="m589.5 585.7c17.9 0 32.5 14.6 32.5 32.5s-14.6 32.5-32.5 32.5-32.5-14.6-32.5-32.5 14.6-32.5 32.5-32.5m0 53c11.3 0 20.5-9.2 20.5-20.5s-9.2-20.5-20.5-20.5-20.5 9.2-20.5 20.5 9.2 20.5 20.5 20.5"></path><path d="m324.5 585.7c17.9 0 32.5 14.6 32.5 32.5s-14.6 32.5-32.5 32.5-32.5-14.6-32.5-32.5 14.6-32.5 32.5-32.5m0 53c11.3 0 20.5-9.2 20.5-20.5s-9.2-20.5-20.5-20.5-20.5 9.2-20.5 20.5 9.1 20.5 20.5 20.5"></path><path d="m258.7 250 13.7 68.4.5 2.3h2.4 374.6l-37.9 188.6h-298.8-2.1l-.7 2-11.8 35.3-1.3 3.8h4 329.4v11.9h-349.8l17.3-52 .2-.7-.2-.8-48.9-244.6-.5-2.3h-2.4-34v-11.9zm288.8 159.1h3.2 66.9 2.4l.5-2.3 14.1-70.7.7-3.4h-3.5-74-2.6l-.3 2.6-7.1 70.7zm-84.6 0h2.9 67.1 2.6l.3-2.6 7.1-70.7.3-3.2h-3.2-74.2-2.9v2.9 70.7zm-84.5 0h2.6 67.1 2.9v-2.9-70.7-2.9h-2.9-74.1-3.2l.3 3.2 7.1 70.7zm-87.9 0h2.4 70.5 3.2l-.3-3.2-7.1-70.7-.3-2.6h-2.6-77.5-3.5l.7 3.4 14.1 70.7zm248.1 88.3h3.2 58.1 2.4l.5-2.3 14.1-70.7.7-3.4h-3.5-65.2-2.6l-.3 2.6-7.1 70.7zm-75.7 0h2.9 58.3 2.6l.3-2.6 7.1-70.7.3-3.2h-3.2-65.3-2.9v2.9 70.7 2.9m-75.7 0h2.6 58.3 2.9v-2.9-70.7-2.8h-2.9-65.3-3.2l.3 3.2 7.1 70.7zm-79.2 0h2.4 61.6 3.2l-.3-3.2-7.1-70.7-.3-2.6h-2.6-68.7-3.5l.7 3.4 14.1 70.7z"></path></svg>